<!DOCTYPE svg PUBLIC "-//W3C//DTD SVG 1.1//EN" "http://www.w3.org/Graphics/SVG/1.1/DTD/svg11.dtd">
<!-- Uploaded to: SVG Repo, www.svgrepo.com, Transformed by: SVG Repo Mixer Tools -->
<svg height="800px" width="800px" version="1.1" id="Capa_1" xmlns="http://www.w3.org/2000/svg" xmlns:xlink="http://www.w3.org/1999/xlink" viewBox="0 0 48.722 48.722" xml:space="preserve" fill="#000000">
<g id="SVGRepo_bgCarrier" stroke-width="0"/>
<g id="SVGRepo_tracerCarrier" stroke-linecap="round" stroke-linejoin="round"/>
<g id="SVGRepo_iconCarrier"> <g> <path style="fill:#0271e1;" d="M44.054,17.407c2.125,0,3.381-0.626,3.735-1.862s-0.381-2.433-2.183-3.557L28.451,1.282 C27.127,0.455,25.407,0,23.607,0c-1.942,0-3.78,0.518-5.176,1.46L3.006,11.867c-2.18,1.471-2.324,2.802-2.062,3.66 s1.127,1.88,3.756,1.88h2.32v22.695c-3.539,0.107-6.17,1.919-6.17,4.305c0,2.46,2.794,4.315,6.5,4.315h34.019 c3.706,0,6.5-1.855,6.5-4.315c0-2.389-2.637-4.202-6.182-4.306V17.407H44.054z M4.607,14.407c0.025-0.017,0.05-0.035,0.077-0.052 L20.109,3.947C21.001,3.345,22.276,3,23.607,3c1.245,0,2.401,0.293,3.256,0.827l16.954,10.581h-3.63h-7.333h-17H8.52H4.7 C4.668,14.407,4.637,14.407,4.607,14.407z M17.353,40.092V17.407h14v22.685C31.353,40.092,17.353,40.092,17.353,40.092z M14.353,17.407v22.667H10.02V17.407H14.353z M44.869,44.407c0,0.338-1.204,1.315-3.5,1.315H7.35c-2.296,0-3.5-0.977-3.5-1.315 c0-0.338,1.204-1.315,3.5-1.315h34.019C43.666,43.092,44.869,44.069,44.869,44.407z M38.687,40.073h-4.333V17.407h4.333V40.073z"/> </g> </g>
</svg>